<svg xmlns="http://www.w3.org/2000/svg" viewBox="0 0 43 44" fill="none">
  <path d="M21.4117 32.2298L8.78125 17.9374L12.7698 12.4531H30.0536L34.0422 17.9374L21.4117 32.2298Z" fill="#4BDDE6"/>
  <path d="M21.0362 35.0019C21.4318 34.9905 21.7618 35.2997 21.7733 35.6925L21.3639 40.9501C21.3754 41.3429 21.064 41.6706 20.6684 41.682C20.2728 41.6934 19.9428 41.3842 19.9313 40.9914L20.3407 35.7338C20.3292 35.341 20.6406 35.0133 21.0362 35.0019ZM25.9755 31.6682C26.2838 31.4218 26.7349 31.4702 26.9831 31.7764L30.3753 37.7008C30.6234 38.0069 30.5747 38.4549 30.2664 38.7013C29.9581 38.9477 29.507 38.8993 29.2588 38.5931L25.8666 32.6687C25.6185 32.3626 25.6672 31.9146 25.9755 31.6682ZM21.409 11.7198C21.416 11.7198 21.423 11.7199 21.43 11.7201L29.457 11.9726L29.476 11.9734C29.6715 11.9842 29.8544 12.0741 29.9817 12.2226L34.3507 16.9862C34.5806 17.2543 34.5784 17.6491 34.3455 17.9147L21.9495 31.8152C21.8134 31.9704 21.6163 32.0595 21.409 32.0595C21.2018 32.0595 21.0047 31.9704 20.8686 31.8152L8.47248 17.9147C8.2387 17.648 8.23752 17.2514 8.46973 16.9833L12.885 12.2198C13.0158 12.0688 13.2045 11.9791 13.405 11.9726L20.5536 11.7201L20.5769 11.7198H21.409ZM13.2577 30.2222C13.5142 29.9229 13.9664 29.8866 14.2679 30.1412C14.5694 30.3959 14.6059 30.845 14.3495 31.1443L9.28483 36.6288C9.02841 36.9281 8.57613 36.9644 8.27466 36.7097C7.9732 36.4551 7.9367 36.006 8.19312 35.7066L13.2577 30.2222ZM30.9442 29.2183C31.2427 28.9603 31.6954 28.9916 31.9552 29.2881L36.1573 33.9132C36.4171 34.2097 36.3856 34.6592 36.087 34.9172C35.7884 35.1751 35.3357 35.1439 35.076 34.8474L30.8739 30.2222C30.6141 29.9257 30.6456 29.4762 30.9442 29.2183ZM21.3639 30.7792L25.1483 18.159H16.0444L21.3639 30.7792ZM23.7863 28.6431L32.2311 17.8267L26.9831 18.159L23.7863 28.6431ZM19.1141 28.358L14.5217 18.159L10.587 17.8267L19.1141 28.358ZM32.4915 24.399C32.7484 24.1 33.2008 24.0645 33.5018 24.3197L39.2697 28.8866C39.5707 29.1417 39.6065 29.5909 39.3496 29.8898C39.0926 30.1888 38.6403 30.2243 38.3393 29.9691L32.5714 25.4022C32.2703 25.1471 32.2346 24.6979 32.4915 24.399ZM8.19312 25.7351C8.50552 25.4938 8.95576 25.5497 9.19873 25.8599C9.4417 26.1701 9.38539 26.6172 9.07299 26.8585L4.26196 30.6396C3.94955 30.8808 3.49932 30.8249 3.25634 30.5147C3.01338 30.2045 3.06969 29.7574 3.38209 29.5161L8.19312 25.7351ZM35.0639 21.2881C35.2253 20.9293 35.6491 20.7684 36.0105 20.9287L41.0976 23.0996C41.4589 23.2599 41.621 23.6808 41.4595 24.0396C41.298 24.3984 40.8742 24.5593 40.5129 24.399L35.4258 22.228C35.0644 22.0677 34.9024 21.6469 35.0639 21.2881ZM4.37671 20.9835C4.73966 20.8268 5.16184 20.9919 5.31965 21.3523C5.47745 21.7127 5.31115 22.132 4.94821 22.2887L2.42915 23.3959C2.0662 23.5526 1.64401 23.3874 1.4862 23.027C1.3284 22.6666 1.4947 22.2474 1.85764 22.0907L4.37671 20.9835ZM41.8066 16.8578C42.2021 16.8435 42.5345 17.1502 42.549 17.5429C42.5634 17.9357 42.2545 18.2657 41.859 18.28L37.5738 18.3357C37.1783 18.35 36.846 18.0433 36.8315 17.6506C36.8171 17.2578 37.126 16.9278 37.5215 16.9135L41.8066 16.8578ZM0.00238208 16.4035C0.0343736 16.0118 0.380096 15.72 0.774571 15.7517L5.12282 16.3014C5.51729 16.3332 5.81114 16.6765 5.77915 17.0682C5.74716 17.4599 5.40144 17.7517 5.00697 17.72L0.658718 17.1703C0.264245 17.1385 -0.0296024 16.7952 0.00238208 16.4035ZM27.5865 16.7359L32.5862 17.0682L29.4622 13.8122L27.5865 16.7359ZM16.5701 16.4035H24.2197L21.3966 13.4754H20.577L16.5701 16.4035ZM10.2425 17.0682L14.1286 16.712L13.3413 13.5429L10.2425 17.0682ZM25.579 16.559L28.0064 13.3542L22.6014 13.1875L25.579 16.559ZM14.7062 13.3545L15.4404 16.2487L19.3209 13.1947L14.7062 13.3545ZM39.0694 11.2277C39.4229 11.051 39.8537 11.1923 40.0316 11.5434C40.2096 11.8944 40.0673 12.3222 39.7137 12.4989L36.388 14.191C36.0345 14.3677 35.6037 14.2263 35.4258 13.8753C35.2478 13.5242 35.3902 13.0964 35.7437 12.9198L39.0694 11.2277ZM3.02033 10.5223C3.21693 10.1813 3.65474 10.063 3.99823 10.2582L8.07062 12.2919C8.41411 12.4871 8.53319 12.9219 8.3366 13.2629C8.14 13.604 7.70219 13.7223 7.35871 13.527L3.28631 11.4934C2.94283 11.2982 2.82374 10.8634 3.02033 10.5223ZM33.0343 4.5063C33.2839 4.2013 33.7352 4.15496 34.0424 4.40278C34.3495 4.65061 34.3962 5.09877 34.1466 5.40378L31.6545 9.38849C31.4049 9.69349 30.9536 9.73983 30.6464 9.49201C30.3393 9.24418 30.2926 8.796 30.5422 8.49099L33.0343 4.5063ZM7.35871 6.11889C7.66075 5.86493 8.11291 5.90221 8.36865 6.20214L11.5263 9.33859C11.782 9.63852 11.7445 10.0875 11.4425 10.3415C11.1404 10.5954 10.6882 10.5582 10.4325 10.2582L7.27486 7.12176C7.01912 6.82183 7.05666 6.37284 7.35871 6.11889ZM13.9125 1.82006C14.2875 1.69446 14.6941 1.89452 14.8206 2.26691L16.7985 7.37523C16.925 7.74761 16.7235 8.15135 16.3485 8.27696C15.9735 8.40256 15.5669 8.20249 15.4404 7.83011L13.4625 2.72179C13.336 2.3494 13.5375 1.94566 13.9125 1.82006ZM22.752 0.000149428C23.1477 -0.00782348 23.475 0.304254 23.483 0.697174L23.4539 8.14493C23.462 8.53785 23.1477 8.86285 22.752 8.87083C22.3563 8.8788 22.029 8.56672 22.021 8.1738L22.05 0.726047C22.042 0.333128 22.3563 0.00812752 22.752 0.000149428Z" fill="#423C39"/>
</svg>
