<svg width="100" height="100" viewBox="0 0 100 100" fill="none" xmlns="http://www.w3.org/2000/svg">
<g clip-path="url(#clip0_2483_19248)">
<path d="M42.277 37.2513C41.3655 36.3737 39.8746 34.7838 39.076 33.8173C38.1534 32.701 37.42 31.5507 36.408 30.4022C34.6972 28.4609 32.7667 26.7688 31.2886 24.6744C30.7939 23.9736 30.5063 23.1526 30.1431 22.3911C29.9406 21.9667 29.5934 21.5419 29.4118 21.0911C29.3087 20.837 29.252 20.5679 29.2442 20.2954C29.2259 19.3094 30.1065 18.1631 31.1936 18.169C31.7297 18.1719 32.2048 18.4054 32.7164 18.5233C33.2523 18.6387 33.8307 18.6828 34.3616 18.8288C35.9923 19.2773 37.6183 20.6156 38.7794 21.7693C39.6216 22.6448 40.3134 23.6492 41.0437 24.6085C41.6398 25.3915 42.2902 26.1809 42.9612 26.9056C43.6722 27.6737 44.4724 28.3824 45.2937 29.0409C46.2896 29.8395 47.2457 30.6903 48.2078 31.5258C49.2398 32.4221 50.0799 33.5027 51.1817 34.3214C52.1332 35.063 53.1357 35.4666 54.1575 36.0723C56.2694 37.3238 58.0732 38.9367 60.6409 39.3078C60.6211 37.0351 59.5355 34.9509 58.1722 33.1345C57.6739 32.4714 56.7335 31.5322 56.3458 30.837C54.9055 28.2545 54.7553 23.9964 56.8182 21.6691C57.1108 21.3394 57.6789 21.0512 57.8681 20.6404C58.0996 19.9456 59.2133 19.3742 59.882 19.8762C61.698 21.2403 62.3106 24.0581 63.4941 25.9204C64.2354 27.0807 65.4178 27.9503 66.1658 29.1087C66.6888 29.9183 66.9363 30.8275 67.2866 31.7052C68.0037 33.505 69.0789 35.1095 70.1881 36.7095C71.7473 38.9593 73.765 41.1185 74.425 43.8098C75.0382 46.468 75.339 49.2061 75.5205 51.9174C75.5755 52.7404 75.4088 54.1608 75.5177 54.793C75.8604 56.7778 76.8662 58.7309 77.9051 60.4537C78.9934 62.2635 80.238 63.8315 81.6294 65.4316C82.4428 66.3679 83.3865 67.2446 84.1432 68.2109C84.3318 68.4522 84.5375 68.8252 84.4022 69.1266C84.2818 69.175 84.113 69.1961 84.0475 69.2894C83.3342 70.302 81.8879 68.8247 81.3626 68.3326C79.2096 66.3141 77.4233 63.8868 75.9264 61.3926C75.5232 60.7151 74.8209 58.6829 74.6571 57.9158C73.8393 59.6144 73.0858 61.4996 71.1335 62.253C71.8006 60.8626 72.1443 59.3889 72.6151 57.9479C73.0748 56.5412 72.9923 55.3974 73.0358 53.9864C73.1518 50.2361 72.7911 46.5317 71.2089 43.0562C71.1192 42.8585 71.0175 42.6368 70.9388 42.4335C70.7749 42.2045 70.4549 41.4447 70.3372 41.165C69.8246 40.2356 69.2686 39.2893 68.7214 38.3769C68.3474 37.7527 67.7111 36.9797 67.3982 36.3396C66.9671 35.3086 66.2565 34.2593 65.849 33.2355C65.1786 31.5517 64.4131 29.9351 63.6228 28.3C63.3517 27.7386 63.0003 27.1974 62.7198 26.629C61.148 26.7019 60.7069 25.7475 60.0322 24.5676C59.4998 23.636 59.3623 22.5055 59.3024 21.4601C58.1541 21.4293 57.3841 21.8889 56.8754 22.8753C56.408 23.781 56.0824 24.9629 56.1473 25.9795C56.2012 26.2203 56.3832 26.5052 56.4426 26.7331C56.8996 28.4725 57.5205 30.0117 59.0796 31.1287C59.6422 31.5317 59.9216 31.7437 60.636 31.8498C61.1596 31.9276 61.7387 31.8865 62.2287 32.0554C62.5333 32.1866 62.2523 32.7072 62.0873 32.8504C61.6072 33.2686 61.2888 33.5793 60.6134 33.6001C61.8283 35.418 62.1973 37.4381 62.0241 39.5986C61.9262 40.2126 61.6314 41.5213 61.2332 42.0121C60.8208 42.5203 59.8864 43.9974 59.1231 43.8974C58.9553 43.8754 58.5407 43.5095 58.6045 43.3516C59.0956 42.1369 59.4904 41.1727 59.7616 39.8819C57.5106 39.2841 56.051 38.2599 54.1383 37.0648C53.2397 36.5033 52.2008 36.0617 51.3236 35.4522C49.8346 34.4178 48.6018 33.1238 47.2511 31.9378C44.6991 29.6206 41.9389 27.4881 39.7733 24.8054C38.2456 22.8443 36.7393 20.813 34.333 19.7723C33.1509 19.2611 31.4065 19.3586 30.8511 20.675C30.9928 21.5545 32.3663 23.7401 33.0055 24.4837C34.4122 26.0306 35.9557 27.4919 37.4417 28.9758C39.0589 30.5906 40.324 32.3097 41.7688 34.0451C42.6014 35.0452 43.7766 35.9309 44.69 36.9543C45.1651 36.474 46.9867 34.8722 47.6815 35.4498C47.6138 35.7675 43.5218 39.2896 42.8976 39.7295C42.5066 40.0051 41.7025 40.9826 41.2855 41.0983L41.1991 41.039C41.0912 40.284 42.205 39.277 42.7133 38.7485C41.5896 37.9679 40.3242 36.7268 39.2565 35.8331C37.5022 34.3649 35.6526 32.9423 33.9766 31.3997C33.2952 30.7725 32.6853 29.9622 32.0743 29.2665C31.743 28.8894 31.3658 28.5146 31.0625 28.1239C30.9007 29.1228 30.5402 29.8531 29.5329 30.3105C29.36 30.389 29.2933 30.4236 29.1219 30.3656C29.0889 30.1638 29.2788 30.0112 29.4448 29.8699C30.1198 29.2956 30.3579 28.5396 30.7353 27.7523C28.9482 25.6426 26.3549 20.7174 22.5402 22.1638C21.9185 22.3994 21.6629 22.8558 21.4444 23.4303C22.012 23.7594 21.9813 24.6644 22.637 25.1549C23.0107 25.4554 23.5021 25.5994 23.9538 25.777C25.3936 26.3093 26.0986 27.5088 27.0309 28.5454C28.3291 29.9887 29.3286 31.3697 30.3824 32.9721C31.3367 34.4232 32.601 35.9284 33.761 37.2393C35.219 38.8869 37.2633 40.1579 38.9467 41.5807C39.2634 41.8447 39.9787 42.7976 39.9566 43.2219C39.9319 43.6969 39.4 44.2994 39.2103 44.7456C38.7478 45.6487 38.5247 46.998 37.9706 47.7793C37.9031 47.8747 37.8058 47.8505 37.7226 47.8452C37.1105 47.2572 38.2808 44.7061 38.6461 44.0511C37.6112 43.0124 36.922 42.025 35.639 41.15C35.2311 40.8719 34.0232 40.1497 33.7803 39.8764C32.8279 38.805 32.0383 37.4717 31.0818 36.378C30.4575 35.6424 29.6716 34.938 29.1251 34.1979C28.9752 34.5256 28.248 35.9664 27.7603 35.7449C27.7553 35.4723 28.6458 34.3445 28.8934 33.9952C27.6642 31.9816 26.8812 29.9301 24.985 28.3042C23.833 27.3164 22.2302 26.0624 20.9979 27.8143C21.1606 28.2973 21.234 28.837 21.4151 29.3105C22.1168 31.1446 22.8939 33.0355 24.0936 34.6263C24.5449 35.2248 24.9901 35.7963 25.348 36.4528C26.08 35.5395 26.6955 35.5311 27.463 36.3792C29.9852 36.6867 30.452 38.4918 31.6364 40.3539C32.2778 41.3624 32.6353 42.8075 33.285 43.7767C34.8885 46.1692 37.816 48.3299 38.239 51.2936C38.3235 51.8905 38.0434 54.7398 37.2977 54.7498C37.0022 54.4232 37.2495 53.3694 37.3062 52.9527C37.3876 52.3552 37.4295 51.8557 37.4152 51.2483C36.3956 49.7988 35.3767 49.0791 33.9709 48.0697C33.9316 48.5739 33.7034 49.7799 33.1582 49.9785L33.0832 49.9148C33.0158 49.4885 33.4881 48.5064 33.5992 47.7725C32.8676 46.6613 32.2641 45.3268 31.5525 44.1538C31.3257 44.6903 31.0431 45.3136 30.4992 45.5971C30.2346 45.7351 29.9009 45.9495 29.6038 45.8789C29.4713 45.4743 30.7648 44.6824 30.9471 43.8994C31.301 42.3793 30.7509 40.6928 30.0822 39.3281C29.6091 38.3628 28.7598 37.5457 27.7103 37.2145C27.1272 37.044 26.884 37.0948 26.3914 37.3395C26.6382 38.1881 26.8371 39.0465 27.0017 39.9132C27.1471 40.6787 27.1672 41.1819 26.7937 41.8845C27.3099 42.9504 27.6127 45.4047 28.0635 46.6113C28.3338 47.3347 28.826 48.6308 29.3085 49.2361C29.9267 49.9843 30.7293 50.5359 31.4265 51.2314C33.7455 53.5454 36.0251 56.0259 38.6386 58.0428C40.4017 59.4037 42.436 60.5059 44.1397 61.9743C44.5715 62.3468 45.2928 62.6734 45.755 63.0486C48.52 64.9959 51.3561 66.6824 54.6459 67.7014C56.4173 68.3278 58.5412 68.8763 60.4259 68.5523C62.5531 68.1871 64.5764 67.067 66.2604 65.8173C66.5788 65.5807 67.7298 65.4548 68.0274 65.7593C68.166 66.2161 67.743 67.0644 67.5198 67.4643C66.5579 69.1587 65.2144 70.7388 63.6536 71.9569C63.1674 72.3362 63.2439 72.36 62.6857 72.5818C62.7506 72.8478 64.445 74.8136 64.7277 75.2272C66.0398 77.1503 68.3084 80.2072 69.0294 82.3494L68.9188 82.3984L69.0558 82.9026L69.0926 82.6476C69.2351 82.7056 69.3456 83.0628 69.2741 83.2214L69.1454 83.1566L69.1262 83.2019L69.1135 83.1508L69.2004 83.1993L69.1498 83.2656C69.2477 83.4848 69.2956 83.5265 69.1212 83.7045C68.8925 83.7788 67.8679 83.615 67.6556 83.5159C67.6391 83.4553 67.6226 83.3953 67.6061 83.3347L67.5291 83.3505L67.4802 83.5718L67.3916 83.5918C67.3069 83.5048 67.2327 83.43 67.1441 83.3463C67.0765 83.5359 67.065 83.6403 66.9099 83.7604C66.1036 83.7409 64.2569 80.4954 63.8565 79.8505C63.0695 78.5818 57.3522 71.7888 56.3909 71.5143C51.5035 70.1181 48.5187 68.4021 44.6521 65.3953L40.6394 62.3004C39.3493 61.3041 38.0589 60.5217 36.8142 59.4448C35.5901 58.3863 34.8756 57.4395 33.7937 56.2809C31.2454 53.5528 27.8635 50.8389 26.4351 47.4005C25.6948 45.6281 25.5494 43.7671 25.3723 41.8914C25.1958 41.526 24.9903 39.2523 24.8677 39.0578C23.724 37.2444 22.2279 35.7302 21.4419 33.707C21.2417 33.1917 20.9906 32.4007 20.7399 31.9247C20.2833 31.0579 19.6168 30.2979 19.4234 29.297C19.0868 27.5397 19.1023 26.2748 21.2129 25.8916C20.5334 25.1703 19.904 24.1356 19.8469 23.1472C19.8157 22.5074 20.0488 21.8817 20.4956 21.4053C20.8546 21.0228 21.3812 20.7476 21.9325 20.7015C22.2252 20.6498 22.8702 20.9741 23.1118 20.9604C26.6608 20.7465 29.0946 23.8914 30.9291 26.3729C32.1218 27.9863 33.3149 29.6047 34.7661 31.036C37.0487 33.2875 39.9446 35.1132 42.2369 37.3297L42.277 37.2513Z" fill="black"/>
<path d="M70.3359 41.1654C70.4344 41.0798 70.4437 41.0515 70.4916 40.9326L70.5477 40.9551C70.6654 41.2814 70.9222 41.3996 70.9645 41.6152C70.898 41.7121 70.8837 41.7079 70.7781 41.7692C70.7346 42.06 71.096 42.2685 70.9376 42.434C70.7737 42.205 70.4536 41.4452 70.3359 41.1654Z" fill="black"/>
<path d="M42.2784 37.252C42.4689 37.4209 43.174 37.995 43.1842 38.1959L43.1314 38.1753L43.181 38.1218L43.0757 38.1403L43.1537 38.0799L43.1351 38.0541L43.0135 38.0937C42.7269 37.8385 42.5037 37.6072 42.2383 37.3304L42.2784 37.252Z" fill="black"/>
<path d="M59.9542 20.7588C60.5976 21.4979 61.3978 23.5586 61.8587 24.5079C62.105 25.0153 62.1749 25.3784 62.5225 25.9207L62.501 25.9849C62.2436 25.9964 61.989 25.8388 61.8174 25.6672C60.189 24.0388 60.1478 22.7111 59.8359 20.7701L59.9542 20.7588Z" fill="white"/>
<path d="M26.4769 36.415L26.5593 36.4843L26.5601 36.5644C25.6277 37.321 25.9033 37.5439 26.0709 38.52C26.2281 39.4356 26.5303 40.6281 26.1068 41.4854L26.087 41.4956L26.0087 41.4596C25.8248 40.2401 25.5105 38.8235 25.7239 37.6033C25.83 36.9965 25.9827 36.7544 26.4769 36.415Z" fill="white"/>
<path d="M21.753 21.2528C22.0415 21.2381 22.4711 21.2559 22.7704 21.2599C21.6732 21.8413 21.0171 22.3476 20.7642 23.5893L20.7442 24.253C20.1348 22.9973 20.3128 21.8445 21.753 21.2528Z" fill="white"/>
<path d="M30.9501 18.8276C31.255 18.8039 31.3158 18.8052 31.6174 18.8527C30.862 19.315 30.6303 19.5218 30.212 20.3356C30.1309 20.5262 30.1542 20.5635 30.0094 20.6646L29.9125 20.5893C29.6431 19.786 30.2563 19.1653 30.9501 18.8276Z" fill="white"/>
<path d="M20.8245 26.5259C20.9822 26.5239 21.2361 26.5077 21.3522 26.5937C20.6742 27.1061 20.2893 27.5374 20.1029 28.3755C20.0508 28.5652 20.126 28.6148 19.9982 28.7524C19.7378 27.8406 19.7954 26.9082 20.8245 26.5259Z" fill="white"/>
<path d="M62.5701 69.1133C62.7324 69.1976 62.7984 69.2566 62.8495 69.412C62.7995 69.6106 62.6152 70.0427 62.359 70.0079C62.2226 69.8367 62.2099 69.8261 62.0257 69.6949L61.9806 69.6639C61.8733 69.7503 61.8601 69.7508 61.7309 69.8088L61.6407 69.7771C61.6369 69.5796 61.7573 69.4373 61.9195 69.3309C62.0097 69.3967 62.1021 69.46 62.1956 69.5216L62.315 69.4916C62.4634 69.3261 62.486 69.3109 62.5701 69.1133Z" fill="black"/>
<path d="M59.3316 20.3018C59.645 20.4786 59.7006 20.4963 59.9552 20.7591L59.837 20.7704C59.6093 20.6788 59.6769 20.8376 59.4751 20.8169C59.1033 20.7789 58.7981 20.7739 58.4258 20.7865C58.7805 20.5253 58.9268 20.459 59.3316 20.3018Z" fill="white"/>
<path d="M65.2885 29.4941C65.5426 29.6287 66.3845 31.4352 66.4109 31.7292L66.3295 31.8128C66.2476 31.6555 66.2481 31.5028 66.1981 31.4047C66.0012 31.0195 65.8016 30.6245 65.6047 30.239C65.492 30.0177 65.4914 30.0684 65.2252 29.9916C65.1257 29.7647 65.4012 29.8861 65.2885 29.4941Z" fill="black"/>
<path d="M82.4141 67.9023C82.6489 68.0188 83.0454 68.238 83.0372 68.5019C82.8166 68.6036 82.7847 68.6036 82.5851 68.5014C82.4498 68.3028 82.4493 68.1389 82.4141 67.9023Z" fill="black"/>
<path d="M60.6289 35.7734C60.9 35.9673 61.1673 37.192 61.1778 37.5489C61.0502 37.3432 60.6812 36.0359 60.6289 35.7734Z" fill="black"/>
<path d="M38.5195 31.8543L38.5746 31.8535C38.8057 32.0832 39.4742 32.7964 39.5394 33.0752C39.3164 32.8825 38.5349 32.1219 38.5195 31.8543Z" fill="black"/>
<path d="M76.75 60.4778L76.8292 60.4609C76.9942 60.6501 77.2527 61.2202 77.361 61.4567L77.3038 61.5721C77.1339 61.5516 77.1949 61.5884 77.0822 61.4999C77.2741 61.2644 76.8391 60.8271 76.75 60.4778Z" fill="black"/>
<path d="M37.6055 30.6162C37.7645 30.6912 38.1674 31.2842 38.311 31.4752L38.2854 31.5916C38.0984 31.4669 37.6264 30.8295 37.6055 30.6162Z" fill="black"/>
<path d="M80.7227 66.1719C80.9426 66.2124 81.5157 66.8162 81.5993 67.0417C81.2825 66.7962 80.8997 66.5254 80.7227 66.1719Z" fill="black"/>
<path d="M29.4258 33.4999L29.5002 33.4629C29.7026 33.5982 29.9591 33.8842 30.0561 34.1038C29.868 34.0527 29.4437 33.6821 29.4258 33.4999Z" fill="black"/>
<path d="M61.8361 75.1875C62.1105 75.3382 62.0886 75.5732 61.9923 75.8187C61.7239 75.5157 61.6354 75.5226 61.8361 75.1875Z" fill="black"/>
<path d="M35.8555 28.6172C36.0959 28.7163 36.4792 29.0798 36.5343 29.3355L36.4592 29.3491C36.2513 29.1241 35.9977 28.8768 35.8555 28.6172Z" fill="black"/>
<path d="M73.1362 43.5575L73.2412 43.5264C73.3985 43.7118 73.4023 43.7471 73.4447 43.9843L73.3759 44.0335L73.3385 44.0236C73.2709 43.8874 73.1823 43.7634 73.0977 43.6352L73.1362 43.5575Z" fill="black"/>
<path d="M31.8008 53.0439C32.035 53.1346 32.3514 53.5281 32.5368 53.7305C32.1955 53.6809 31.9654 53.3026 31.8008 53.0439Z" fill="black"/>
<path d="M74.6226 54.1621C74.6935 54.3918 74.6457 54.7327 74.5676 54.9593C74.4537 54.6484 74.4317 54.4435 74.6226 54.1621Z" fill="black"/>
<path d="M34.9805 47.8975C35.209 47.9459 35.5118 48.0365 35.573 48.2678C35.3766 48.2552 35.1344 48.026 34.9805 47.8975Z" fill="black"/>
<path d="M71.5742 40.5049C71.7838 40.6001 71.7953 40.809 71.9003 41.0809L71.7881 41.0733C71.638 40.8938 71.6259 40.7328 71.5742 40.5049Z" fill="black"/>
<path d="M59.6445 68.881C60.0009 68.8515 60.0801 68.9326 60.4018 69.088C60.0762 69.1012 59.9366 69.0095 59.6445 68.881Z" fill="black"/>
<path d="M32.6875 54.0117C32.9171 54.0865 33.0672 54.2198 33.2082 54.4C32.9103 54.2968 32.8539 54.2688 32.6875 54.0117Z" fill="black"/>
<path d="M53.8141 41.0322L53.9713 41.0879C54.0995 41.2436 54.0819 41.6854 54.0819 41.8954C54.0714 43.1577 54.2205 44.4167 54.5257 45.6443C55.5354 49.726 57.6434 53.2956 61.0327 56.0353C61.6349 56.5221 62.3301 56.8793 62.9994 57.2745C62.6766 57.1891 62.3416 57.0764 62.0221 56.9747C61.4656 56.7713 61.2197 56.5769 60.7088 56.3461C60.2606 56.5769 59.8415 56.2624 59.4384 56.0195C56.4472 54.2197 54.2227 50.5943 53.4225 47.3535C53.0106 45.6833 52.8588 42.4625 53.8141 41.0322Z" fill="black"/>
<path d="M48.0796 45.0195C48.9214 45.2419 48.8042 45.7582 48.8144 46.4416C48.8771 50.6233 46.3705 55.3515 43.2476 58.2155C43.1208 58.3351 42.8686 58.4937 42.7148 58.597C43.0911 57.5943 43.8063 56.6544 44.4069 55.7872C46.2135 53.1802 47.4058 50.4089 47.7259 47.2756C47.7735 46.8098 47.9336 45.382 48.0796 45.0195Z" fill="black"/>
<path d="M51.27 55.7805C54.0539 55.4269 58.8489 56.7799 60.4988 59.0428C60.5219 59.2731 60.622 59.6414 60.4169 59.7778C60.2321 59.7404 59.6959 59.35 59.5061 59.222C57.2876 57.6161 54.3949 56.8642 51.6489 56.7889C51.231 56.7773 49.2559 56.821 49.5062 56.202C49.8975 55.8605 50.7418 55.8273 51.27 55.7805Z" fill="black"/>
<path d="M31.0367 63.0107C31.2068 63.0302 31.1995 63.0208 31.3305 63.123C31.5758 63.8184 28.7918 66.9923 28.2611 67.6472C27.4384 68.662 26.4315 69.8432 25.3002 70.5302L25.0839 70.4833C24.489 69.8896 26.8446 67.4322 27.3246 66.918C28.4454 65.7178 29.7723 64.0334 31.0367 63.0107Z" fill="black"/>
<path d="M87.2206 39.7618C87.5935 39.7094 87.8905 39.8162 88.2435 39.9211C88.1913 40.0284 88.1385 40.1407 88.072 40.2406C87.5149 41.0735 81.7953 42.5411 80.6756 42.7881C80.3105 42.8331 79.8337 42.9743 79.6021 42.664C79.5306 41.7338 86.2329 39.89 87.2206 39.7618Z" fill="black"/>
<path d="M82.8773 33.4531C83.1099 33.5257 83.331 33.5492 83.5747 33.5964C84.0333 34.1384 82.3725 35.7112 81.966 36.1175C80.832 37.2507 79.6227 38.5526 78.3919 39.5783C78.178 39.7421 78.0102 39.8529 77.7693 39.6949C77.6192 38.928 82.0667 34.0065 82.8773 33.4531Z" fill="black"/>
<path d="M11.3521 35.5166C12.5202 35.7697 17.1553 38.001 18.172 38.9383C18.2933 39.0501 18.301 39.189 18.2873 39.3402C18.1711 39.4768 18.2431 39.4245 18.0497 39.4823C16.8381 39.1791 11.9468 37.2679 11.1948 36.513C11.063 36.3806 10.9924 36.2406 11.0007 36.0554C11.0114 35.8147 11.1785 35.6698 11.3521 35.5166Z" fill="black"/>
<path d="M28.2105 60.6727C28.4326 60.6453 28.577 60.6063 28.7873 60.6758L28.84 60.7812C28.8267 60.8197 28.8056 60.8934 28.774 60.9161C26.9452 62.248 24.3316 63.1753 22.1454 63.6869C21.8765 63.729 21.6155 63.7264 21.4384 63.5051C21.4154 63.3133 21.476 63.1252 21.5854 62.963C22.1615 62.1089 27.0102 60.8781 28.2105 60.6727Z" fill="black"/>
<path d="M80.4856 45.8068C82.4566 45.7499 85.1239 46.1725 86.8931 47.0113C86.9465 47.1625 86.996 47.3147 87.0416 47.4686C86.9833 47.6572 87.0383 47.5766 86.8409 47.6978L86.1925 47.7146C85.439 47.7278 78.96 47.2104 80.4856 45.8068Z" fill="black"/>
<path d="M33.0101 66.21L33.0852 66.211C33.7541 66.6567 32.8041 70.7231 32.4856 71.5224C32.3424 71.8817 32.2167 71.9892 31.8539 72.1215C31.6241 71.9829 31.4629 71.7964 31.4867 71.5271C31.6385 69.8143 31.9795 67.9723 32.5886 66.3554C32.6284 66.25 32.918 66.2273 33.0101 66.21Z" fill="black"/>
<path d="M16.8514 42.8183C17.1787 42.7711 17.7554 42.755 18.0385 42.9369C18.1281 43.6264 13.8019 44.6677 13.1276 44.7304C12.94 44.7409 12.3909 44.7804 12.2259 44.7367C12.0914 44.6998 11.9826 44.605 11.9319 44.4796C11.5185 43.4916 16.2323 42.8958 16.8514 42.8183Z" fill="black"/>
<path d="M38.4392 24.7031C38.6209 24.7388 38.6094 24.7652 38.6893 24.9004C38.7184 25.6437 38.0007 26.519 37.2736 26.7553C37.1795 26.7471 37.1886 26.7424 37.0977 26.7105C37.1186 26.3876 38.1616 24.9869 38.4392 24.7031Z" fill="black"/>
<path d="M42.4704 29.5049C42.649 29.5511 42.578 29.5074 42.698 29.6293C42.6508 29.8357 42.2286 30.205 42.0608 30.3877C41.6548 30.8298 41.3097 31.2956 40.9349 31.7602C40.8783 31.7736 40.8327 31.7668 40.7714 31.7656L40.6914 31.6851C40.7094 30.9149 41.7845 29.852 42.4704 29.5049Z" fill="black"/>
<path d="M35.9751 34.4561L36.0424 34.5137C36.2856 35.1365 35.0494 36.2164 34.533 36.512L34.4421 36.4776C34.4082 36.1697 35.6741 34.6932 35.9751 34.4561Z" fill="black"/>
<path d="M18.6481 91.498C18.7026 91.5144 18.7709 91.5455 18.825 91.5681C18.9657 91.9143 18.9563 92.5571 19.1462 93.0903L19.1787 93.1793L19.0849 93.3189C19.033 93.2836 18.9811 93.2483 18.9292 93.2125C18.8062 92.7383 18.6497 92.2494 18.542 91.7741C18.5048 91.6092 18.5377 91.6377 18.6481 91.498Z" fill="white"/>
<path d="M29.6963 60.6699L29.8489 60.7268C30.0809 60.9876 30.0112 61.3522 29.8625 61.6341C29.3718 61.407 29.4548 61.0556 29.6963 60.6699Z" fill="white"/>
<path d="M2.10938 18.5068C2.3953 18.7 2.74694 19.0763 2.91506 19.375C2.50545 19.3031 2.11608 18.9163 2.10938 18.5068Z" fill="white"/>
<path d="M9.61312 51.46C9.79571 51.5495 9.95646 51.6191 9.94568 51.8319L9.80143 51.8999C9.56555 51.9141 9.53047 51.9552 9.35938 51.8651C9.36526 51.7208 9.51177 51.5822 9.61312 51.46Z" fill="white"/>
<path d="M7.34297 36.8994L7.38482 36.9045L7.41298 36.9566C7.22605 37.1387 6.8969 37.2382 6.62946 37.4007L6.58739 37.4267L6.49609 37.3539L6.49763 37.2701C6.7224 37.0944 7.06233 36.9998 7.34297 36.8994Z" fill="white"/>
<path d="M8.12891 55.4238C8.50513 55.4518 8.68804 55.5508 8.8285 55.8854C8.4679 55.8416 8.35824 55.6878 8.12891 55.4238Z" fill="white"/>
<path d="M6.65059 37.5547C6.92788 37.7358 6.77802 38.0033 6.6347 38.223C6.53527 38.2052 6.58223 38.2277 6.50431 38.1381C6.49826 37.8934 6.56156 37.7831 6.65059 37.5547Z" fill="white"/>
<path d="M39.071 67.1328C39.1385 67.1887 39.1161 67.1744 39.1538 67.2651C39.1065 67.4574 38.9842 67.5601 38.847 67.7129L38.8017 67.7008L38.7617 67.6181C38.8687 67.4584 38.9719 67.2967 39.071 67.1328Z" fill="white"/>
<path d="M92.0938 28.9316C92.3654 28.9981 92.4721 29.22 92.5893 29.4474C92.548 29.4243 92.5079 29.4005 92.4677 29.376C92.2598 29.2479 92.1476 29.1597 92.0938 28.9316Z" fill="white"/>
</g>
<defs>
<clipPath id="clip0_2483_19248">
<rect width="100" height="100" fill="white"/>
</clipPath>
</defs>
</svg>
