<svg width="303" height="44" viewBox="0 0 303 44" fill="none" xmlns="http://www.w3.org/2000/svg">
<path d="M21.4117 32.2298L8.78125 17.9374L12.7698 12.4531H30.0536L34.0422 17.9374L21.4117 32.2298Z" fill="#4BDDE6"/>
<path d="M21.0362 35.0019C21.4318 34.9905 21.7618 35.2997 21.7733 35.6925L21.3639 40.9501C21.3754 41.3429 21.064 41.6706 20.6684 41.682C20.2728 41.6934 19.9428 41.3842 19.9313 40.9914L20.3407 35.7338C20.3292 35.341 20.6406 35.0133 21.0362 35.0019ZM25.9755 31.6682C26.2838 31.4218 26.7349 31.4702 26.9831 31.7764L30.3753 37.7008C30.6234 38.0069 30.5747 38.4549 30.2664 38.7013C29.9581 38.9477 29.507 38.8993 29.2588 38.5931L25.8666 32.6687C25.6185 32.3626 25.6672 31.9146 25.9755 31.6682ZM21.409 11.7198C21.416 11.7198 21.423 11.7199 21.43 11.7201L29.457 11.9726L29.476 11.9734C29.6715 11.9842 29.8544 12.0741 29.9817 12.2226L34.3507 16.9862C34.5806 17.2543 34.5784 17.6491 34.3455 17.9147L21.9495 31.8152C21.8134 31.9704 21.6163 32.0595 21.409 32.0595C21.2018 32.0595 21.0047 31.9704 20.8686 31.8152L8.47248 17.9147C8.2387 17.648 8.23752 17.2514 8.46973 16.9833L12.885 12.2198C13.0158 12.0688 13.2045 11.9791 13.405 11.9726L20.5536 11.7201L20.5769 11.7198H21.409ZM13.2577 30.2222C13.5142 29.9229 13.9664 29.8866 14.2679 30.1412C14.5694 30.3959 14.6059 30.845 14.3495 31.1443L9.28483 36.6288C9.02841 36.9281 8.57613 36.9644 8.27466 36.7097C7.9732 36.4551 7.9367 36.006 8.19312 35.7066L13.2577 30.2222ZM30.9442 29.2183C31.2427 28.9603 31.6954 28.9916 31.9552 29.2881L36.1573 33.9132C36.4171 34.2097 36.3856 34.6592 36.087 34.9172C35.7884 35.1751 35.3357 35.1439 35.076 34.8474L30.8739 30.2222C30.6141 29.9257 30.6456 29.4762 30.9442 29.2183ZM21.3639 30.7792L25.1483 18.159H16.0444L21.3639 30.7792ZM23.7863 28.6431L32.2311 17.8267L26.9831 18.159L23.7863 28.6431ZM19.1141 28.358L14.5217 18.159L10.587 17.8267L19.1141 28.358ZM32.4915 24.399C32.7484 24.1 33.2008 24.0645 33.5018 24.3197L39.2697 28.8866C39.5707 29.1417 39.6065 29.5909 39.3496 29.8898C39.0926 30.1888 38.6403 30.2243 38.3393 29.9691L32.5714 25.4022C32.2703 25.1471 32.2346 24.6979 32.4915 24.399ZM8.19312 25.7351C8.50552 25.4938 8.95576 25.5497 9.19873 25.8599C9.4417 26.1701 9.38539 26.6172 9.07299 26.8585L4.26196 30.6396C3.94955 30.8808 3.49932 30.8249 3.25634 30.5147C3.01338 30.2045 3.06969 29.7574 3.38209 29.5161L8.19312 25.7351ZM35.0639 21.2881C35.2253 20.9293 35.6491 20.7684 36.0105 20.9287L41.0976 23.0996C41.4589 23.2599 41.621 23.6808 41.4595 24.0396C41.298 24.3984 40.8742 24.5593 40.5129 24.399L35.4258 22.228C35.0644 22.0677 34.9024 21.6469 35.0639 21.2881ZM4.37671 20.9835C4.73966 20.8268 5.16184 20.9919 5.31965 21.3523C5.47745 21.7127 5.31115 22.132 4.94821 22.2887L2.42915 23.3959C2.0662 23.5526 1.64401 23.3874 1.4862 23.027C1.3284 22.6666 1.4947 22.2474 1.85764 22.0907L4.37671 20.9835ZM41.8066 16.8578C42.2021 16.8435 42.5345 17.1502 42.549 17.5429C42.5634 17.9357 42.2545 18.2657 41.859 18.28L37.5738 18.3357C37.1783 18.35 36.846 18.0433 36.8315 17.6506C36.8171 17.2578 37.126 16.9278 37.5215 16.9135L41.8066 16.8578ZM0.00238208 16.4035C0.0343736 16.0118 0.380096 15.72 0.774571 15.7517L5.12282 16.3014C5.51729 16.3332 5.81114 16.6765 5.77915 17.0682C5.74716 17.4599 5.40144 17.7517 5.00697 17.72L0.658718 17.1703C0.264245 17.1385 -0.0296024 16.7952 0.00238208 16.4035ZM27.5865 16.7359L32.5862 17.0682L29.4622 13.8122L27.5865 16.7359ZM16.5701 16.4035H24.2197L21.3966 13.4754H20.577L16.5701 16.4035ZM10.2425 17.0682L14.1286 16.712L13.3413 13.5429L10.2425 17.0682ZM25.579 16.559L28.0064 13.3542L22.6014 13.1875L25.579 16.559ZM14.7062 13.3545L15.4404 16.2487L19.3209 13.1947L14.7062 13.3545ZM39.0694 11.2277C39.4229 11.051 39.8537 11.1923 40.0316 11.5434C40.2096 11.8944 40.0673 12.3222 39.7137 12.4989L36.388 14.191C36.0345 14.3677 35.6037 14.2263 35.4258 13.8753C35.2478 13.5242 35.3902 13.0964 35.7437 12.9198L39.0694 11.2277ZM3.02033 10.5223C3.21693 10.1813 3.65474 10.063 3.99823 10.2582L8.07062 12.2919C8.41411 12.4871 8.53319 12.9219 8.3366 13.2629C8.14 13.604 7.70219 13.7223 7.35871 13.527L3.28631 11.4934C2.94283 11.2982 2.82374 10.8634 3.02033 10.5223ZM33.0343 4.5063C33.2839 4.2013 33.7352 4.15496 34.0424 4.40278C34.3495 4.65061 34.3962 5.09877 34.1466 5.40378L31.6545 9.38849C31.4049 9.69349 30.9536 9.73983 30.6464 9.49201C30.3393 9.24418 30.2926 8.796 30.5422 8.49099L33.0343 4.5063ZM7.35871 6.11889C7.66075 5.86493 8.11291 5.90221 8.36865 6.20214L11.5263 9.33859C11.782 9.63852 11.7445 10.0875 11.4425 10.3415C11.1404 10.5954 10.6882 10.5582 10.4325 10.2582L7.27486 7.12176C7.01912 6.82183 7.05666 6.37284 7.35871 6.11889ZM13.9125 1.82006C14.2875 1.69446 14.6941 1.89452 14.8206 2.26691L16.7985 7.37523C16.925 7.74761 16.7235 8.15135 16.3485 8.27696C15.9735 8.40256 15.5669 8.20249 15.4404 7.83011L13.4625 2.72179C13.336 2.3494 13.5375 1.94566 13.9125 1.82006ZM22.752 0.000149428C23.1477 -0.00782348 23.475 0.304254 23.483 0.697174L23.4539 8.14493C23.462 8.53785 23.1477 8.86285 22.752 8.87083C22.3563 8.8788 22.029 8.56672 22.021 8.1738L22.05 0.726047C22.042 0.333128 22.3563 0.00812752 22.752 0.000149428Z" fill="#423C39"/>
<path d="M57.5529 34.3408C57.3136 34.3408 57.1102 34.2571 56.9427 34.0895C56.7752 33.922 56.6914 33.7186 56.6914 33.4793V13.6282H50.0504C49.8111 13.6282 49.6077 13.5444 49.4402 13.3769C49.2727 13.2094 49.1889 13.006 49.1889 12.7667V10.1103C49.1889 9.84703 49.2727 9.63164 49.4402 9.46413C49.6077 9.2966 49.8111 9.21284 50.0504 9.21284H68.358C68.6212 9.21284 68.8366 9.2966 69.0041 9.46413C69.1716 9.63164 69.2554 9.84703 69.2554 10.1103V12.7667C69.2554 13.006 69.1716 13.2094 69.0041 13.3769C68.8366 13.5444 68.6212 13.6282 68.358 13.6282H61.7529V33.4793C61.7529 33.7186 61.6691 33.922 61.5016 34.0895C61.3341 34.2571 61.1187 34.3408 60.8555 34.3408H57.5529ZM70.9036 34.3408C70.6643 34.3408 70.4608 34.2571 70.2933 34.0895C70.1258 33.922 70.042 33.7186 70.042 33.4793V9.7154C70.042 9.47609 70.1258 9.27267 70.2933 9.10515C70.4608 8.93763 70.6643 8.85387 70.9036 8.85387H74.0984C74.3617 8.85387 74.5651 8.93763 74.7087 9.10515C74.8762 9.27267 74.96 9.47609 74.96 9.7154V17.8999C75.6061 17.1341 76.3958 16.5119 77.3292 16.0333C78.2625 15.5547 79.4112 15.3154 80.7753 15.3154C82.2351 15.3154 83.5035 15.6504 84.5804 16.3205C85.6812 16.9666 86.5308 17.888 87.1291 19.0845C87.7274 20.2811 88.0265 21.717 88.0265 23.3922V33.4793C88.0265 33.7186 87.9427 33.922 87.7752 34.0895C87.6077 34.2571 87.4043 34.3408 87.165 34.3408H83.9342C83.6949 34.3408 83.4915 34.2571 83.324 34.0895C83.1565 33.922 83.0727 33.7186 83.0727 33.4793V23.6076C83.0727 22.2196 82.7257 21.1307 82.0317 20.3409C81.3616 19.5512 80.3804 19.1563 79.0881 19.1563C77.8437 19.1563 76.8386 19.5512 76.0728 20.3409C75.3309 21.1307 74.96 22.2196 74.96 23.6076V33.4793C74.96 33.7186 74.8762 33.922 74.7087 34.0895C74.5651 34.2571 74.3617 34.3408 74.0984 34.3408H70.9036ZM98.8282 34.6998C96.1718 34.6998 94.0658 33.934 92.5103 32.4024C90.9547 30.8708 90.1171 28.693 89.9975 25.8691C89.9735 25.6298 89.9616 25.3306 89.9616 24.9717C89.9616 24.5888 89.9735 24.2896 89.9975 24.0742C90.0932 22.2794 90.5 20.7239 91.218 19.4076C91.9598 18.0914 92.9769 17.0863 94.2692 16.3923C95.5615 15.6743 97.0812 15.3154 98.8282 15.3154C100.767 15.3154 102.394 15.7222 103.71 16.5359C105.026 17.3256 106.02 18.4384 106.69 19.8743C107.36 21.2862 107.695 22.9255 107.695 24.7922V25.546C107.695 25.7853 107.611 25.9888 107.443 26.1563C107.276 26.3238 107.061 26.4076 106.797 26.4076H94.8795C94.8795 26.4076 94.8795 26.4435 94.8795 26.5153C94.8795 26.587 94.8795 26.6469 94.8795 26.6947C94.9034 27.5323 95.059 28.3101 95.3461 29.028C95.6572 29.7221 96.1 30.2844 96.6743 30.7152C97.2726 31.146 97.9786 31.3614 98.7923 31.3614C99.4623 31.3614 100.025 31.2656 100.479 31.0742C100.934 30.8588 101.305 30.6195 101.592 30.3562C101.879 30.093 102.083 29.8776 102.202 29.7101C102.418 29.4229 102.585 29.2554 102.705 29.2075C102.849 29.1357 103.052 29.0998 103.315 29.0998H106.402C106.642 29.0998 106.833 29.1716 106.977 29.3152C107.144 29.4588 107.216 29.6383 107.192 29.8537C107.168 30.2366 106.965 30.7032 106.582 31.2537C106.223 31.8041 105.696 32.3425 105.002 32.869C104.308 33.3955 103.435 33.8383 102.382 34.1972C101.353 34.5323 100.168 34.6998 98.8282 34.6998ZM94.8795 23.3922H102.813V23.2845C102.813 22.3512 102.657 21.5375 102.346 20.8435C102.035 20.1495 101.58 19.5991 100.982 19.1922C100.384 18.7854 99.6658 18.582 98.8282 18.582C97.9906 18.582 97.2726 18.7854 96.6743 19.1922C96.076 19.5991 95.6214 20.1495 95.3102 20.8435C95.0231 21.5375 94.8795 22.3512 94.8795 23.2845V23.3922ZM122.422 34.3408C122.182 34.3408 121.979 34.2571 121.811 34.0895C121.644 33.922 121.56 33.7186 121.56 33.4793V13.6282H114.919C114.68 13.6282 114.476 13.5444 114.309 13.3769C114.141 13.2094 114.058 13.006 114.058 12.7667V10.1103C114.058 9.84703 114.141 9.63164 114.309 9.46413C114.476 9.2966 114.68 9.21284 114.919 9.21284H133.227C133.49 9.21284 133.705 9.2966 133.873 9.46413C134.04 9.63164 134.124 9.84703 134.124 10.1103V12.7667C134.124 13.006 134.04 13.2094 133.873 13.3769C133.705 13.5444 133.49 13.6282 133.227 13.6282H126.621V33.4793C126.621 33.7186 126.538 33.922 126.37 34.0895C126.203 34.2571 125.987 34.3408 125.724 34.3408H122.422ZM134.019 34.3408C133.779 34.3408 133.576 34.2571 133.408 34.0895C133.241 33.922 133.157 33.7186 133.157 33.4793V16.5718C133.157 16.3085 133.241 16.0931 133.408 15.9256C133.576 15.7581 133.779 15.6743 134.019 15.6743H136.926C137.166 15.6743 137.369 15.7581 137.536 15.9256C137.728 16.0931 137.824 16.3085 137.824 16.5718V18.0435C138.374 17.2777 139.08 16.6914 139.942 16.2846C140.827 15.8777 141.844 15.6743 142.993 15.6743H144.465C144.728 15.6743 144.931 15.7581 145.075 15.9256C145.242 16.0931 145.326 16.2965 145.326 16.5359V19.1204C145.326 19.3598 145.242 19.5632 145.075 19.7307C144.931 19.8982 144.728 19.982 144.465 19.982H141.665C140.516 19.982 139.618 20.3051 138.972 20.9512C138.35 21.5973 138.039 22.4828 138.039 23.6076V33.4793C138.039 33.7186 137.955 33.922 137.788 34.0895C137.62 34.2571 137.405 34.3408 137.142 34.3408H134.019ZM153.259 34.6998C151.799 34.6998 150.531 34.3767 149.454 33.7306C148.401 33.0605 147.587 32.1272 147.013 30.9306C146.439 29.7101 146.151 28.2742 146.151 26.6229V16.5359C146.151 16.2965 146.235 16.0931 146.403 15.9256C146.57 15.7581 146.774 15.6743 147.013 15.6743H150.172C150.435 15.6743 150.639 15.7581 150.782 15.9256C150.95 16.0931 151.033 16.2965 151.033 16.5359V26.4076C151.033 29.3751 152.338 30.8588 154.946 30.8588C156.191 30.8588 157.172 30.4639 157.89 29.6742C158.632 28.8845 159.003 27.7956 159.003 26.4076V16.5359C159.003 16.2965 159.086 16.0931 159.254 15.9256C159.421 15.7581 159.625 15.6743 159.864 15.6743H163.023C163.262 15.6743 163.466 15.7581 163.633 15.9256C163.801 16.0931 163.885 16.2965 163.885 16.5359V33.4793C163.885 33.7186 163.801 33.922 163.633 34.0895C163.466 34.2571 163.262 34.3408 163.023 34.3408H160.115C159.852 34.3408 159.637 34.2571 159.469 34.0895C159.326 33.922 159.254 33.7186 159.254 33.4793V32.0075C158.608 32.8451 157.806 33.5032 156.849 33.9818C155.892 34.4605 154.695 34.6998 153.259 34.6998ZM173.903 34.6998C172.467 34.6998 171.235 34.5323 170.206 34.1972C169.201 33.8622 168.375 33.4434 167.729 32.9408C167.083 32.4383 166.604 31.9357 166.293 31.4332C165.982 30.9306 165.814 30.5118 165.791 30.1768C165.767 29.9135 165.838 29.7101 166.006 29.5665C166.197 29.399 166.401 29.3152 166.616 29.3152H169.452C169.548 29.3152 169.632 29.3272 169.703 29.3511C169.775 29.3751 169.871 29.4468 169.991 29.5665C170.302 29.8298 170.625 30.105 170.96 30.3921C171.319 30.6793 171.738 30.9306 172.216 31.146C172.695 31.3374 173.293 31.4332 174.011 31.4332C174.944 31.4332 175.722 31.2537 176.344 30.8947C176.99 30.5118 177.314 29.9733 177.314 29.2793C177.314 28.7768 177.17 28.3699 176.883 28.0588C176.62 27.7477 176.117 27.4725 175.375 27.2332C174.633 26.9699 173.58 26.6947 172.216 26.4076C170.876 26.0965 169.763 25.7016 168.878 25.223C167.992 24.7443 167.334 24.146 166.903 23.4281C166.473 22.7102 166.257 21.8726 166.257 20.9153C166.257 19.982 166.532 19.0965 167.083 18.2589C167.657 17.3974 168.495 16.6914 169.596 16.141C170.72 15.5906 172.108 15.3154 173.76 15.3154C175.052 15.3154 176.177 15.4829 177.134 15.8179C178.091 16.129 178.881 16.5239 179.503 17.0025C180.149 17.4811 180.64 17.9717 180.975 18.4743C181.31 18.9529 181.49 19.3717 181.513 19.7307C181.537 19.9939 181.466 20.2093 181.298 20.3768C181.131 20.5204 180.939 20.5922 180.724 20.5922H178.067C177.948 20.5922 177.84 20.5683 177.744 20.5204C177.649 20.4726 177.553 20.4127 177.457 20.3409C177.194 20.1016 176.907 19.8504 176.596 19.5871C176.284 19.3239 175.902 19.0965 175.447 18.9051C175.016 18.6897 174.442 18.582 173.724 18.582C172.814 18.582 172.12 18.7854 171.642 19.1922C171.163 19.5751 170.924 20.0657 170.924 20.664C170.924 21.0709 171.032 21.4298 171.247 21.7409C171.486 22.0281 171.953 22.3033 172.647 22.5666C173.341 22.8298 174.394 23.105 175.806 23.3922C177.409 23.6794 178.678 24.1101 179.611 24.6845C180.568 25.2349 181.238 25.8811 181.621 26.6229C182.028 27.3409 182.231 28.1426 182.231 29.028C182.231 30.105 181.908 31.0742 181.262 31.9357C180.64 32.7972 179.707 33.4793 178.462 33.9818C177.242 34.4605 175.722 34.6998 173.903 34.6998ZM192.508 34.3408C191.072 34.3408 189.863 34.0895 188.882 33.587C187.901 33.0844 187.171 32.3425 186.693 31.3614C186.214 30.3562 185.975 29.1118 185.975 27.6281V19.4794H183.139C182.899 19.4794 182.696 19.3957 182.528 19.2281C182.361 19.0606 182.277 18.8572 182.277 18.6179V16.5359C182.277 16.2965 182.361 16.0931 182.528 15.9256C182.696 15.7581 182.899 15.6743 183.139 15.6743H185.975V9.7154C185.975 9.47609 186.046 9.27267 186.19 9.10515C186.357 8.93763 186.573 8.85387 186.836 8.85387H189.744C189.983 8.85387 190.186 8.93763 190.354 9.10515C190.522 9.27267 190.605 9.47609 190.605 9.7154V15.6743H195.092C195.332 15.6743 195.535 15.7581 195.703 15.9256C195.87 16.0931 195.954 16.2965 195.954 16.5359V18.6179C195.954 18.8572 195.87 19.0606 195.703 19.2281C195.535 19.3957 195.332 19.4794 195.092 19.4794H190.605V27.2691C190.605 28.2503 190.773 29.0161 191.108 29.5665C191.467 30.1169 192.077 30.3921 192.939 30.3921H195.416C195.655 30.3921 195.858 30.4759 196.026 30.6434C196.193 30.8109 196.277 31.0144 196.277 31.2537V33.4793C196.277 33.7186 196.193 33.922 196.026 34.0895C195.858 34.2571 195.655 34.3408 195.416 34.3408H192.508ZM205.708 34.6998C203.051 34.6998 200.945 33.934 199.39 32.4024C197.834 30.8708 196.997 28.693 196.877 25.8691C196.853 25.6298 196.841 25.3306 196.841 24.9717C196.841 24.5888 196.853 24.2896 196.877 24.0742C196.973 22.2794 197.379 20.7239 198.097 19.4076C198.839 18.0914 199.856 17.0863 201.149 16.3923C202.441 15.6743 203.961 15.3154 205.708 15.3154C207.646 15.3154 209.273 15.7222 210.59 16.5359C211.906 17.3256 212.899 18.4384 213.569 19.8743C214.239 21.2862 214.574 22.9255 214.574 24.7922V25.546C214.574 25.7853 214.49 25.9888 214.323 26.1563C214.155 26.3238 213.94 26.4076 213.677 26.4076H201.759C201.759 26.4076 201.759 26.4435 201.759 26.5153C201.759 26.587 201.759 26.6469 201.759 26.6947C201.783 27.5323 201.938 28.3101 202.226 29.028C202.537 29.7221 202.979 30.2844 203.554 30.7152C204.152 31.146 204.858 31.3614 205.672 31.3614C206.342 31.3614 206.904 31.2656 207.359 31.0742C207.814 30.8588 208.184 30.6195 208.472 30.3562C208.759 30.093 208.962 29.8776 209.082 29.7101C209.297 29.4229 209.465 29.2554 209.584 29.2075C209.728 29.1357 209.931 29.0998 210.195 29.0998H213.282C213.521 29.0998 213.713 29.1716 213.856 29.3152C214.024 29.4588 214.096 29.6383 214.072 29.8537C214.048 30.2366 213.844 30.7032 213.461 31.2537C213.102 31.8041 212.576 32.3425 211.882 32.869C211.188 33.3955 210.314 33.8383 209.261 34.1972C208.232 34.5323 207.048 34.6998 205.708 34.6998ZM201.759 23.3922H209.692V23.2845C209.692 22.3512 209.537 21.5375 209.226 20.8435C208.914 20.1495 208.46 19.5991 207.861 19.1922C207.263 18.7854 206.545 18.582 205.708 18.582C204.87 18.582 204.152 18.7854 203.554 19.1922C202.955 19.5991 202.501 20.1495 202.19 20.8435C201.902 21.5375 201.759 22.3512 201.759 23.2845V23.3922ZM223.518 34.6998C222.273 34.6998 221.173 34.4964 220.215 34.0895C219.282 33.6588 218.504 33.0605 217.882 32.2947C217.26 31.5289 216.781 30.6315 216.446 29.6024C216.111 28.5494 215.92 27.4007 215.872 26.1563C215.848 25.7255 215.836 25.3426 215.836 25.0076C215.836 24.6486 215.848 24.2537 215.872 23.823C215.92 22.6264 216.099 21.5136 216.41 20.4845C216.745 19.4555 217.224 18.5581 217.846 17.7923C218.492 17.0025 219.282 16.3923 220.215 15.9615C221.173 15.5307 222.273 15.3154 223.518 15.3154C224.81 15.3154 225.899 15.5427 226.785 15.9974C227.694 16.4282 228.448 16.9906 229.046 17.6846V9.7154C229.046 9.47609 229.118 9.27267 229.261 9.10515C229.429 8.93763 229.644 8.85387 229.908 8.85387H232.959C233.198 8.85387 233.402 8.93763 233.569 9.10515C233.737 9.27267 233.82 9.47609 233.82 9.7154V33.4793C233.82 33.7186 233.737 33.922 233.569 34.0895C233.402 34.2571 233.198 34.3408 232.959 34.3408H230.123C229.86 34.3408 229.644 34.2571 229.477 34.0895C229.333 33.922 229.261 33.7186 229.261 33.4793V32.1511C228.663 32.893 227.897 33.5032 226.964 33.9818C226.055 34.4605 224.906 34.6998 223.518 34.6998ZM224.846 30.8588C225.851 30.8588 226.653 30.6315 227.251 30.1768C227.849 29.7221 228.292 29.1477 228.579 28.4537C228.867 27.7358 229.022 27.0058 229.046 26.264C229.07 25.8332 229.082 25.3785 229.082 24.8999C229.082 24.3973 229.07 23.9307 229.046 23.4999C229.022 22.782 228.855 22.0999 228.543 21.4538C228.232 20.7837 227.778 20.2333 227.179 19.8025C226.581 19.3717 225.803 19.1563 224.846 19.1563C223.841 19.1563 223.039 19.3837 222.441 19.8384C221.867 20.2692 221.448 20.8435 221.185 21.5615C220.921 22.2794 220.766 23.0691 220.718 23.9307C220.694 24.6486 220.694 25.3665 220.718 26.0845C220.766 26.946 220.921 27.7358 221.185 28.4537C221.448 29.1716 221.867 29.758 222.441 30.2127C223.039 30.6434 223.841 30.8588 224.846 30.8588ZM246.305 34.3408C246.066 34.3408 245.863 34.2571 245.695 34.0895C245.527 33.922 245.444 33.7186 245.444 33.4793V10.0744C245.444 9.83506 245.527 9.63164 245.695 9.46413C245.863 9.2966 246.066 9.21284 246.305 9.21284H249.644C249.883 9.21284 250.086 9.2966 250.254 9.46413C250.421 9.63164 250.505 9.83506 250.505 10.0744V30.0691H261.885C262.148 30.0691 262.363 30.1528 262.531 30.3203C262.698 30.4879 262.782 30.7032 262.782 30.9665V33.4793C262.782 33.7186 262.698 33.922 262.531 34.0895C262.363 34.2571 262.148 34.3408 261.885 34.3408H246.305ZM264.903 34.3408C264.663 34.3408 264.46 34.2571 264.293 34.0895C264.125 33.922 264.041 33.7186 264.041 33.4793V16.5359C264.041 16.2965 264.125 16.0931 264.293 15.9256C264.46 15.7581 264.663 15.6743 264.903 15.6743H267.882C268.145 15.6743 268.349 15.7581 268.492 15.9256C268.66 16.0931 268.744 16.2965 268.744 16.5359V33.4793C268.744 33.7186 268.66 33.922 268.492 34.0895C268.349 34.2571 268.145 34.3408 267.882 34.3408H264.903ZM264.759 12.5872C264.496 12.5872 264.281 12.5154 264.113 12.3718C263.969 12.2043 263.898 11.9889 263.898 11.7256V9.14105C263.898 8.90174 263.969 8.69832 264.113 8.5308C264.281 8.36328 264.496 8.27952 264.759 8.27952H268.026C268.289 8.27952 268.504 8.36328 268.672 8.5308C268.839 8.69832 268.923 8.90174 268.923 9.14105V11.7256C268.923 11.9889 268.839 12.2043 268.672 12.3718C268.504 12.5154 268.289 12.5872 268.026 12.5872H264.759ZM278.783 34.6998C277.347 34.6998 276.115 34.5323 275.086 34.1972C274.081 33.8622 273.255 33.4434 272.609 32.9408C271.963 32.4383 271.484 31.9357 271.173 31.4332C270.862 30.9306 270.694 30.5118 270.67 30.1768C270.646 29.9135 270.718 29.7101 270.886 29.5665C271.077 29.399 271.281 29.3152 271.496 29.3152H274.332C274.428 29.3152 274.511 29.3272 274.583 29.3511C274.655 29.3751 274.751 29.4468 274.87 29.5665C275.181 29.8298 275.505 30.105 275.84 30.3921C276.199 30.6793 276.617 30.9306 277.096 31.146C277.575 31.3374 278.173 31.4332 278.891 31.4332C279.824 31.4332 280.602 31.2537 281.224 30.8947C281.87 30.5118 282.193 29.9733 282.193 29.2793C282.193 28.7768 282.05 28.3699 281.763 28.0588C281.499 27.7477 280.997 27.4725 280.255 27.2332C279.513 26.9699 278.46 26.6947 277.096 26.4076C275.756 26.0965 274.643 25.7016 273.758 25.223C272.872 24.7443 272.214 24.146 271.783 23.4281C271.352 22.7102 271.137 21.8726 271.137 20.9153C271.137 19.982 271.412 19.0965 271.963 18.2589C272.537 17.3974 273.375 16.6914 274.476 16.141C275.6 15.5906 276.988 15.3154 278.64 15.3154C279.932 15.3154 281.057 15.4829 282.014 15.8179C282.971 16.129 283.761 16.5239 284.383 17.0025C285.029 17.4811 285.52 17.9717 285.855 18.4743C286.19 18.9529 286.369 19.3717 286.393 19.7307C286.417 19.9939 286.345 20.2093 286.178 20.3768C286.01 20.5204 285.819 20.5922 285.604 20.5922H282.947C282.828 20.5922 282.72 20.5683 282.624 20.5204C282.528 20.4726 282.433 20.4127 282.337 20.3409C282.074 20.1016 281.787 19.8504 281.475 19.5871C281.164 19.3239 280.781 19.0965 280.327 18.9051C279.896 18.6897 279.322 18.582 278.604 18.582C277.694 18.582 277 18.7854 276.522 19.1922C276.043 19.5751 275.804 20.0657 275.804 20.664C275.804 21.0709 275.911 21.4298 276.127 21.7409C276.366 22.0281 276.833 22.3033 277.527 22.5666C278.221 22.8298 279.274 23.105 280.686 23.3922C282.289 23.6794 283.557 24.1101 284.491 24.6845C285.448 25.2349 286.118 25.8811 286.501 26.6229C286.908 27.3409 287.111 28.1426 287.111 29.028C287.111 30.105 286.788 31.0742 286.142 31.9357C285.52 32.7972 284.587 33.4793 283.342 33.9818C282.122 34.4605 280.602 34.6998 278.783 34.6998ZM297.388 34.3408C295.952 34.3408 294.743 34.0895 293.762 33.587C292.781 33.0844 292.051 32.3425 291.572 31.3614C291.094 30.3562 290.854 29.1118 290.854 27.6281V19.4794H288.019C287.779 19.4794 287.576 19.3957 287.408 19.2281C287.241 19.0606 287.157 18.8572 287.157 18.6179V16.5359C287.157 16.2965 287.241 16.0931 287.408 15.9256C287.576 15.7581 287.779 15.6743 288.019 15.6743H290.854V9.7154C290.854 9.47609 290.926 9.27267 291.07 9.10515C291.237 8.93763 291.453 8.85387 291.716 8.85387H294.624C294.863 8.85387 295.066 8.93763 295.234 9.10515C295.401 9.27267 295.485 9.47609 295.485 9.7154V15.6743H299.972C300.212 15.6743 300.415 15.7581 300.583 15.9256C300.75 16.0931 300.834 16.2965 300.834 16.5359V18.6179C300.834 18.8572 300.75 19.0606 300.583 19.2281C300.415 19.3957 300.212 19.4794 299.972 19.4794H295.485V27.2691C295.485 28.2503 295.653 29.0161 295.988 29.5665C296.347 30.1169 296.957 30.3921 297.818 30.3921H300.295C300.535 30.3921 300.738 30.4759 300.906 30.6434C301.073 30.8109 301.157 31.0144 301.157 31.2537V33.4793C301.157 33.7186 301.073 33.922 300.906 34.0895C300.738 34.2571 300.535 34.3408 300.295 34.3408H297.388Z" fill="#423C39"/>
</svg>
